<svg data-v-423bf9ae="" xmlns="http://www.w3.org/2000/svg" viewBox="0 0 505.8804323610786 167" class="iconAbove"><!----><!----><!----><g data-v-423bf9ae="" id="df084de7-6d65-496d-94e0-87d9aa401c79" fill="#2B1200" transform="matrix(9.693052475501048,0,0,9.693052475501048,3.004843730638754,82.66151875840904)"><path d="M-0.31 3.12L1.24 8.59L2.93 8.59L4.28 3.12L3.06 3.12L2.64 5.00L2.24 6.98L1.82 5.00L1.41 3.12L-0.31 3.12ZM6.31 8.22L6.36 8.17L6.51 8.59L7.79 8.59L7.66 8.22L7.66 6.32L7.66 6.32Q7.66 5.81 7.58 5.48L7.58 5.48L7.58 5.48Q7.50 5.14 7.31 4.93L7.31 4.93L7.31 4.93Q7.12 4.71 6.82 4.62L6.82 4.62L6.82 4.62Q6.51 4.53 6.05 4.53L6.05 4.53L6.05 4.53Q5.52 4.53 5.01 4.68L5.01 4.68L5.01 4.68Q4.50 4.84 4.19 5.04L4.19 5.04L4.48 5.68L4.48 5.68Q4.66 5.59 4.97 5.52L4.97 5.52L4.97 5.52Q5.29 5.45 5.58 5.45L5.58 5.45L5.58 5.45Q5.91 5.45 6.06 5.57L6.06 5.57L6.06 5.57Q6.22 5.68 6.22 5.97L6.22 5.97L6.22 6.05L6.22 6.05Q6.06 6.05 5.88 6.07L5.88 6.07L5.88 6.07Q5.71 6.08 5.49 6.12L5.49 6.12L5.49 6.12Q5.27 6.16 5.07 6.23L5.07 6.23L5.07 6.23Q4.88 6.29 4.68 6.40L4.68 6.40L4.68 6.40Q4.48 6.51 4.34 6.65L4.34 6.65L4.34 6.65Q4.20 6.79 4.12 6.99L4.12 6.99L4.12 6.99Q4.03 7.20 4.03 7.44L4.03 7.44L4.03 7.44Q4.03 8.68 5.29 8.68L5.29 8.68L5.29 8.68Q5.47 8.68 5.65 8.63L5.65 8.63L5.65 8.63Q5.83 8.58 5.95 8.50L5.95 8.50L5.95 8.50Q6.08 8.43 6.17 8.35L6.17 8.35L6.17 8.35Q6.27 8.28 6.31 8.22L6.31 8.22ZM5.99 7.86L5.99 7.86L5.99 7.86Q5.60 7.86 5.60 7.28L5.60 7.28L5.60 7.28Q5.60 6.95 5.76 6.80L5.76 6.80L5.76 6.80Q5.93 6.64 6.22 6.64L6.22 6.64L6.22 7.76L6.22 7.76Q6.22 7.76 6.19 7.79L6.19 7.79L6.19 7.79Q6.16 7.81 6.11 7.84L6.11 7.84L6.11 7.84Q6.05 7.86 5.99 7.86ZM11.33 8.25L11.37 8.20L11.14 7.56L11.14 7.56Q10.98 7.69 10.74 7.75L10.74 7.75L10.74 7.75Q10.49 7.80 10.26 7.80L10.26 7.80L10.26 7.80Q10.15 7.80 10.08 7.79L10.08 7.79L10.08 7.79Q10.01 7.78 9.90 7.72L9.90 7.72L9.90 7.72Q9.80 7.66 9.73 7.55L9.73 7.55L9.73 7.55Q9.66 7.44 9.61 7.22L9.61 7.22L9.61 7.22Q9.56 7 9.56 6.69L9.56 6.69L9.56 6.69Q9.56 5.97 9.72 5.68L9.72 5.68L9.72 5.68Q9.88 5.39 10.31 5.39L10.31 5.39L10.31 5.39Q10.37 5.39 10.41 5.39L10.41 5.39L10.68 6.11L11.34 6.10L11.41 5.01L11.41 5.01Q11.41 5.01 11.31 4.91L11.31 4.91L11.31 4.91Q10.86 4.52 10.05 4.52L10.05 4.52L10.05 4.52Q9.63 4.52 9.27 4.67L9.27 4.67L9.27 4.67Q8.91 4.82 8.64 5.08L8.64 5.08L8.64 5.08Q8.37 5.35 8.22 5.76L8.22 5.76L8.22 5.76Q8.06 6.16 8.06 6.66L8.06 6.66L8.06 6.66Q8.06 7.57 8.57 8.13L8.57 8.13L8.57 8.13Q9.07 8.68 10.01 8.68L10.01 8.68L10.01 8.68Q10.29 8.68 10.54 8.64L10.54 8.64L10.54 8.64Q10.78 8.59 10.93 8.51L10.93 8.51L10.93 8.51Q11.08 8.44 11.18 8.37L11.18 8.37L11.18 8.37Q11.29 8.30 11.33 8.25L11.33 8.25ZM13.85 8.22L13.89 8.17L14.04 8.59L15.32 8.59L15.19 8.22L15.19 6.32L15.19 6.32Q15.19 5.81 15.11 5.48L15.11 5.48L15.11 5.48Q15.03 5.14 14.84 4.93L14.84 4.93L14.84 4.93Q14.65 4.71 14.35 4.62L14.35 4.62L14.35 4.62Q14.05 4.53 13.58 4.53L13.58 4.53L13.58 4.53Q13.05 4.53 12.54 4.68L12.54 4.68L12.54 4.68Q12.04 4.84 11.72 5.04L11.72 5.04L12.02 5.68L12.02 5.68Q12.19 5.59 12.51 5.52L12.51 5.52L12.51 5.52Q12.82 5.45 13.11 5.45L13.11 5.45L13.11 5.45Q13.44 5.45 13.60 5.57L13.60 5.57L13.60 5.57Q13.75 5.68 13.75 5.97L13.75 5.97L13.75 6.05L13.75 6.05Q13.59 6.05 13.42 6.07L13.42 6.07L13.42 6.07Q13.24 6.08 13.02 6.12L13.02 6.12L13.02 6.12Q12.81 6.16 12.61 6.23L12.61 6.23L12.61 6.23Q12.41 6.29 12.21 6.40L12.21 6.40L12.21 6.40Q12.02 6.51 11.88 6.65L11.88 6.65L11.88 6.65Q11.74 6.79 11.65 6.99L11.65 6.99L11.65 6.99Q11.56 7.20 11.56 7.44L11.56 7.44L11.56 7.44Q11.56 8.68 12.82 8.68L12.82 8.68L12.82 8.68Q13.01 8.68 13.18 8.63L13.18 8.63L13.18 8.63Q13.36 8.58 13.48 8.50L13.48 8.50L13.48 8.50Q13.61 8.43 13.70 8.35L13.70 8.35L13.70 8.35Q13.80 8.28 13.85 8.22L13.85 8.22ZM13.52 7.86L13.52 7.86L13.52 7.86Q13.13 7.86 13.13 7.28L13.13 7.28L13.13 7.28Q13.13 6.95 13.30 6.80L13.30 6.80L13.30 6.80Q13.46 6.64 13.75 6.64L13.75 6.64L13.75 7.76L13.75 7.76Q13.75 7.76 13.72 7.79L13.72 7.79L13.72 7.79Q13.69 7.81 13.64 7.84L13.64 7.84L13.64 7.84Q13.58 7.86 13.52 7.86ZM16.87 8.68L16.87 8.68L16.87 8.68Q17.19 8.68 17.45 8.61L17.45 8.61L17.45 8.61Q17.71 8.54 17.82 8.48L17.82 8.48L17.82 8.48Q17.93 8.41 18.00 8.34L18.00 8.34L18.00 7.70L18.00 7.70Q17.95 7.75 17.87 7.77L17.87 7.77L17.87 7.77Q17.79 7.79 17.70 7.79L17.70 7.79L17.70 7.79Q17.47 7.79 17.36 7.67L17.36 7.67L17.36 7.67Q17.26 7.55 17.26 7.18L17.26 7.18L17.26 5.44L18.04 5.44L18.04 4.62L17.27 4.62L17.27 3.53L16.45 3.53L15.97 4.62L15.42 4.79L15.42 5.44L15.75 5.44L15.75 7.03L15.75 7.03Q15.75 7.93 15.99 8.31L15.99 8.31L15.99 8.31Q16.24 8.68 16.87 8.68ZM18.44 5.57L18.44 8.59L19.95 8.59L19.95 4.62L19.17 4.62L18.16 4.90L18.16 5.39L18.44 5.57ZM18.35 3.42L19.12 4.19L19.30 4.19L20.09 3.42L20.09 3.26L19.30 2.49L19.12 2.49L18.35 3.26L18.35 3.42ZM22.47 8.12L22.47 8.12L22.47 8.12Q22.04 8.12 22.04 7.24L22.04 7.24L22.04 5.73L22.04 5.73Q22.04 5.43 22.15 5.26L22.15 5.26L22.15 5.26Q22.26 5.10 22.47 5.10L22.47 5.10L22.47 5.10Q22.89 5.10 22.89 6.01L22.89 6.01L22.89 7.49L22.89 7.49Q22.89 7.78 22.78 7.95L22.78 7.95L22.78 7.95Q22.68 8.12 22.47 8.12ZM22.43 8.68L22.43 8.68L22.43 8.68Q23.54 8.68 24.05 8.17L24.05 8.17L24.05 8.17Q24.57 7.66 24.57 6.58L24.57 6.58L24.57 6.58Q24.57 5.55 24.08 5.04L24.08 5.04L24.08 5.04Q23.59 4.53 22.50 4.53L22.50 4.53L22.50 4.53Q21.37 4.53 20.87 5.06L20.87 5.06L20.87 5.06Q20.37 5.60 20.37 6.65L20.37 6.65L20.37 6.65Q20.37 7.71 20.87 8.20L20.87 8.20L20.87 8.20Q21.36 8.68 22.43 8.68ZM25.08 8.59L26.59 8.59L26.59 5.87L26.59 5.87Q26.60 5.86 26.62 5.84L26.62 5.84L26.62 5.84Q26.65 5.81 26.66 5.81L26.66 5.81L26.66 5.81Q26.67 5.80 26.70 5.77L26.70 5.77L26.70 5.77Q26.72 5.75 26.74 5.74L26.74 5.74L26.74 5.74Q26.75 5.74 26.77 5.72L26.77 5.72L26.77 5.72Q26.80 5.70 26.81 5.70L26.81 5.70L26.81 5.70Q26.83 5.69 26.86 5.68L26.86 5.68L26.86 5.68Q26.88 5.67 26.91 5.66L26.91 5.66L26.91 5.66Q26.93 5.66 26.95 5.65L26.95 5.65L26.95 5.65Q26.98 5.65 27.01 5.65L27.01 5.65L27.01 5.65Q27.39 5.65 27.38 6.09L27.38 6.09L27.38 8.59L28.92 8.59L28.92 6.22L28.92 6.22Q28.92 6.19 28.92 6.13L28.92 6.13L28.92 6.13Q28.92 6.08 28.92 6.05L28.92 6.05L28.92 6.05Q28.92 5.23 28.66 4.88L28.66 4.88L28.66 4.88Q28.40 4.53 27.76 4.53L27.76 4.53L27.76 4.53Q27.58 4.53 27.39 4.60L27.39 4.60L27.39 4.60Q27.20 4.67 27.06 4.77L27.06 4.77L27.06 4.77Q26.93 4.87 26.82 4.97L26.82 4.97L26.82 4.97Q26.71 5.08 26.65 5.15L26.65 5.15L26.60 5.22L26.60 4.62L25.80 4.62L24.80 4.90L24.80 5.39L25.08 5.57L25.08 8.59ZM31.32 8.59L32.87 8.59L32.87 6.36L34.07 6.36L34.07 8.59L35.61 8.59L35.61 3.12L34.07 3.12L34.07 5.28L32.87 5.28L32.87 3.12L31.32 3.12L31.32 8.59ZM38.26 8.22L38.30 8.17L38.45 8.59L39.73 8.59L39.60 8.22L39.60 6.32L39.60 6.32Q39.60 5.81 39.52 5.48L39.52 5.48L39.52 5.48Q39.44 5.14 39.25 4.93L39.25 4.93L39.25 4.93Q39.06 4.71 38.76 4.62L38.76 4.62L38.76 4.62Q38.46 4.53 37.99 4.53L37.99 4.53L37.99 4.53Q37.46 4.53 36.96 4.68L36.96 4.68L36.96 4.68Q36.45 4.84 36.13 5.04L36.13 5.04L36.43 5.68L36.43 5.68Q36.61 5.59 36.92 5.52L36.92 5.52L36.92 5.52Q37.23 5.45 37.52 5.45L37.52 5.45L37.52 5.45Q37.86 5.45 38.01 5.57L38.01 5.57L38.01 5.57Q38.16 5.68 38.16 5.97L38.16 5.97L38.16 6.05L38.16 6.05Q38.00 6.05 37.83 6.07L37.83 6.07L37.83 6.07Q37.66 6.08 37.44 6.12L37.44 6.12L37.44 6.12Q37.22 6.16 37.02 6.23L37.02 6.23L37.02 6.23Q36.82 6.29 36.62 6.40L36.62 6.40L36.62 6.40Q36.43 6.51 36.29 6.65L36.29 6.65L36.29 6.65Q36.15 6.79 36.06 6.99L36.06 6.99L36.06 6.99Q35.97 7.20 35.97 7.44L35.97 7.44L35.97 7.44Q35.97 8.68 37.23 8.68L37.23 8.68L37.23 8.68Q37.42 8.68 37.59 8.63L37.59 8.63L37.59 8.63Q37.77 8.58 37.90 8.50L37.90 8.50L37.90 8.50Q38.02 8.43 38.12 8.35L38.12 8.35L38.12 8.35Q38.21 8.28 38.26 8.22L38.26 8.22ZM37.94 7.86L37.94 7.86L37.94 7.86Q37.54 7.86 37.54 7.28L37.54 7.28L37.54 7.28Q37.54 6.95 37.71 6.80L37.71 6.80L37.71 6.80Q37.87 6.64 38.16 6.64L38.16 6.64L38.16 7.76L38.16 7.76Q38.16 7.76 38.13 7.79L38.13 7.79L38.13 7.79Q38.10 7.81 38.05 7.84L38.05 7.84L38.05 7.84Q38.00 7.86 37.94 7.86ZM39.72 4.62L41.09 8.59L42.56 8.59L43.75 4.62L42.49 4.62L42.15 6.05L41.91 7.29L41.70 6.05L41.40 4.62L39.72 4.62ZM46.12 6.17L46.12 6.17L45.41 6.17L45.41 5.78L45.41 5.78Q45.41 5.61 45.42 5.50L45.42 5.50L45.42 5.50Q45.43 5.39 45.47 5.29L45.47 5.29L45.47 5.29Q45.51 5.18 45.60 5.14L45.60 5.14L45.60 5.14Q45.69 5.09 45.83 5.09L45.83 5.09L45.83 5.09Q45.99 5.09 46.06 5.33L46.06 5.33L46.06 5.33Q46.12 5.58 46.12 6.17ZM45.74 8.68L45.74 8.68L45.74 8.68Q46.02 8.68 46.33 8.62L46.33 8.62L46.33 8.62Q46.64 8.55 46.97 8.37L46.97 8.37L46.97 8.37Q47.31 8.18 47.48 7.90L47.48 7.90L47.20 7.42L47.20 7.42Q47.07 7.55 46.88 7.63L46.88 7.63L46.88 7.63Q46.69 7.72 46.50 7.77L46.50 7.77L46.50 7.77Q46.31 7.81 46.14 7.81L46.14 7.81L46.14 7.81Q45.98 7.81 45.86 7.78L45.86 7.78L45.86 7.78Q45.74 7.75 45.63 7.67L45.63 7.67L45.63 7.67Q45.52 7.58 45.46 7.41L45.46 7.41L45.46 7.41Q45.40 7.23 45.40 6.95L45.40 6.95L45.40 6.86L47.53 6.86L47.53 6.35L47.53 6.35Q47.53 5.39 47.14 4.96L47.14 4.96L47.14 4.96Q46.74 4.53 45.82 4.53L45.82 4.53L45.82 4.53Q44.87 4.53 44.33 5.06L44.33 5.06L44.33 5.06Q43.80 5.60 43.80 6.65L43.80 6.65L43.80 6.65Q43.80 7.08 43.90 7.44L43.90 7.44L43.90 7.44Q44.01 7.80 44.23 8.08L44.23 8.08L44.23 8.08Q44.45 8.37 44.84 8.53L44.84 8.53L44.84 8.53Q45.22 8.68 45.74 8.68ZM48.04 8.59L49.55 8.59L49.55 5.87L49.55 5.87Q49.56 5.86 49.58 5.84L49.58 5.84L49.58 5.84Q49.61 5.81 49.62 5.81L49.62 5.81L49.62 5.81Q49.63 5.80 49.66 5.77L49.66 5.77L49.66 5.77Q49.68 5.75 49.70 5.74L49.70 5.74L49.70 5.74Q49.71 5.74 49.73 5.72L49.73 5.72L49.73 5.72Q49.76 5.70 49.77 5.70L49.77 5.70L49.77 5.70Q49.79 5.69 49.82 5.68L49.82 5.68L49.82 5.68Q49.84 5.67 49.87 5.66L49.87 5.66L49.87 5.66Q49.89 5.66 49.91 5.65L49.91 5.65L49.91 5.65Q49.94 5.65 49.97 5.65L49.97 5.65L49.97 5.65Q50.35 5.65 50.34 6.09L50.34 6.09L50.34 8.59L51.88 8.59L51.88 6.22L51.88 6.22Q51.88 6.19 51.88 6.13L51.88 6.13L51.88 6.13Q51.88 6.08 51.88 6.05L51.88 6.05L51.88 6.05Q51.88 5.23 51.62 4.88L51.62 4.88L51.62 4.88Q51.36 4.53 50.72 4.53L50.72 4.53L50.72 4.53Q50.54 4.53 50.35 4.60L50.35 4.60L50.35 4.60Q50.16 4.67 50.02 4.77L50.02 4.77L50.02 4.77Q49.89 4.87 49.78 4.97L49.78 4.97L49.78 4.97Q49.67 5.08 49.61 5.15L49.61 5.15L49.56 5.22L49.56 4.62L48.76 4.62L47.76 4.90L47.76 5.39L48.04 5.57L48.04 8.59Z"></path></g><defs data-v-423bf9ae=""><linearGradient data-v-423bf9ae="" gradientTransform="rotate(25)" id="45862616-6626-4f2e-bd84-65fecb6c606c" x1="0%" y1="0%" x2="100%" y2="0%"><stop data-v-423bf9ae="" offset="0%" style="stop-color: rgb(121, 35, 0); stop-opacity: 1;"></stop><stop data-v-423bf9ae="" offset="100%" style="stop-color: rgb(243, 112, 0); stop-opacity: 1;"></stop></linearGradient></defs><g data-v-423bf9ae="" id="6843a768-b42c-4d7b-9309-ce77d0279fe3" transform="matrix(1.0208777533637152,0,0,1.0208777533637152,202.70800567049235,0.10138757091740302)" stroke="none" fill="url(#45862616-6626-4f2e-bd84-65fecb6c606c)"><path d="M93.75 80.334v-50.8c-23.014 9.118-67.733 9.118-67.733 9.118v42.117h-3.475v11.11h75.984v-8.071l-4.776-3.474zm-62.089.432h-3.474v-5.644h3.474v5.644zm0-9.262h-3.474V65.86h3.474v5.644zm0-9.262h-3.474V56.6h3.474v5.642zm0-9.263h-3.474v-5.643h3.474v5.643zm5.963 27.787H34.15v-5.644h3.473v5.644zm0-9.262H34.15V65.86h3.473v5.644zm0-9.262H34.15V56.6h3.473v5.642zm0-9.263H34.15v-5.643h3.473v5.643zm5.963 27.787h-3.474v-5.644h3.474v5.644zm0-9.262h-3.474V65.86h3.474v5.644zm0-9.262h-3.474V56.6h3.474v5.642zm0-9.263h-3.474v-5.643h3.474v5.643zm5.96 27.787h-3.473v-5.644h3.473v5.644zm0-9.262h-3.473V65.86h3.473v5.644zm0-9.262h-3.473V56.6h3.473v5.642zm0-9.263h-3.473v-5.643h3.473v5.643zm5.964 27.787h-3.473v-5.644h3.473v5.644zm0-9.262h-3.473V65.86h3.473v5.644zm0-9.262h-3.473V56.6h3.473v5.642zm0-9.263h-3.473v-5.643h3.473v5.643zm5.961 27.787h-3.471v-5.644h3.471v5.644zm0-9.262h-3.471V65.86h3.471v5.644zm0-9.262h-3.471V56.6h3.471v5.642zm0-9.263h-3.471v-5.643h3.471v5.643zm5.963 27.787h-3.474v-5.644h3.474v5.644zm0-9.262h-3.474V65.86h3.474v5.644zm0-9.262h-3.474V56.6h3.474v5.642zM73.4 80.766h-3.475v-5.644H73.4v5.644zm0-9.262h-3.475V65.86H73.4v5.644zm0-9.262h-3.475V56.6H73.4v5.642zm5.962 18.524h-3.474v-5.644h3.474v5.644zm0-9.262h-3.474V65.86h3.474v5.644zm5.963 9.262h-3.474v-5.644h3.474v5.644zM41.325 15.09l-3.021-2.681 1.678-.762 2.689 1.698 8.559-4.212-8.649-8.118L44.822 0l10.796 6.903 1.462-.681c.87-.395 1.706-.64 2.514-.738l1.112-.121c.824-.082 1.299.007 1.417.269.127.282-.113.705-.717 1.271l-.823.758c-.604.543-1.359 1.019-2.253 1.425l-1.438.617-1.904 12.688-2.237 1.016-.419-11.854-8.806 3.669-.491 3.143-1.677.763-.033-4.038zM5.609 91.879H3.366l2.244-1.371v-2.243l1.763 1.808v-2.449l2.083 1.282s3.045-24.842.801-32.696c0 0-4.247 1.443-4.729 4.167 0 0-1.202-3.686.962-6.57 0 0-3.446-1.923-6.491-.962 0 0 3.273-4.087 6.639-1.976 0 0 1.096-5.038 3.058-6.038 0 0-.882 2.645.561 4.889 0 0 3.202-1.62 7.123-.597 0 0-1.994.677-3.437 3.241 0 0 1.603 3.205 1.764 5.128 0 0-2.645-1.603-4.087-1.603 0 0 1.202 1.122.08 32.535l2.164-1.121-.241 2.564 2.885-.962-.481 2.003.962.971H5.609z"></path></g><!----></svg>